<?xml version="1.0" standalone="no"?>
<!DOCTYPE svg PUBLIC "-//W3C//DTD SVG 20010904//EN"
 "http://www.w3.org/TR/2001/REC-SVG-20010904/DTD/svg10.dtd">
<svg version="1.0" xmlns="http://www.w3.org/2000/svg"
 width="225.000000pt" height="225.000000pt" viewBox="0 0 225.000000 225.000000"
 preserveAspectRatio="xMidYMid meet">
<metadata>
Created by potrace 1.14, written by Peter Selinger 2001-2017
</metadata>
<g transform="translate(0.000000,225.000000) scale(0.100000,-0.100000)"
fill="#000000" stroke="none">
<path d="M976 2170 c-106 -17 -209 -50 -311 -99 -281 -137 -480 -381 -562
-689 -23 -85 -26 -117 -26 -257 0 -140 3 -172 26 -257 101 -381 384 -664 765
-765 85 -23 117 -26 257 -26 140 0 172 3 257 26 377 100 665 387 765 762 23
89 26 118 26 260 0 140 -3 172 -26 257 -122 460 -518 778 -987 793 -69 2 -152
0 -184 -5z m270 -521 c164 -30 302 -162 321 -308 l6 -41 -106 0 -105 0 -18 45
c-37 98 -139 148 -253 124 -80 -16 -142 -80 -172 -179 -30 -98 -25 -290 9
-365 45 -98 114 -144 215 -145 32 0 72 6 90 14 43 17 90 73 112 130 l18 46
104 0 105 0 -6 -37 c-29 -158 -171 -304 -325 -333 -265 -50 -478 85 -546 345
-20 77 -20 269 0 353 62 264 277 401 551 351z"/>
</g>
</svg>
