<?xml version="1.0" standalone="no"?>
<!DOCTYPE svg PUBLIC "-//W3C//DTD SVG 20010904//EN"
 "http://www.w3.org/TR/2001/REC-SVG-20010904/DTD/svg10.dtd">
<svg version="1.0" xmlns="http://www.w3.org/2000/svg"
 width="225.000000pt" height="225.000000pt" viewBox="0 0 225.000000 225.000000"
 preserveAspectRatio="xMidYMid meet">
<metadata>
Created by potrace 1.14, written by Peter Selinger 2001-2017
</metadata>
<g transform="translate(0.000000,225.000000) scale(0.100000,-0.100000)"
fill="#000000" stroke="none">
<path d="M1023 1635 c-197 -44 -353 -196 -398 -386 -43 -182 9 -365 139 -494
224 -222 581 -202 778 43 21 26 38 52 38 57 0 6 -50 38 -110 73 l-109 63 -37
-41 c-50 -55 -105 -82 -180 -88 -149 -12 -277 109 -276 262 0 74 18 120 68
176 104 115 263 119 377 9 l51 -49 95 55 c137 78 127 68 103 107 -30 49 -121
132 -172 158 -119 61 -254 81 -367 55z"/>
</g>
</svg>
